<svg xmlns="http://www.w3.org/2000/svg" xmlns:xlink="http://www.w3.org/1999/xlink" version="1.1" x="0px" y="0px" viewBox="0 0 100 125" style="enable-background:new 0 0 100 100;" xml:space="preserve"><path d="M85.1142578,40.9052734h-4.7832031H67.5595703H18.0224609V27.9863281c0-2.4648438,2.0058594-4.4707031,4.4707031-4.4707031  c1.8779297,0,3.5683594,1.1875,4.2060547,2.9550781l0.3253174,0.9013672l-1.8770752,0.6767578  c-0.6972656,0.2509766-1.2548828,0.7587891-1.5703125,1.4296875c-0.3154297,0.671875-0.3505859,1.4257813-0.0986328,2.1220703  l1.0546875,2.9257813c0.0898438,0.25,0.2753906,0.453125,0.5146484,0.5664063  c0.1347656,0.0625,0.2802734,0.0947266,0.4257813,0.0947266c0.1142578,0,0.2294922-0.0195313,0.3388519-0.0595703  l8.9765778-3.2373047c0.25-0.0898438,0.453125-0.2753906,0.5664063-0.515625  c0.1123047-0.2392578,0.125-0.5146484,0.0351563-0.7646484l-1.0556641-2.9257813  c-0.2519531-0.6972656-0.7597656-1.2539063-1.4296875-1.5693359c-0.6708984-0.3164063-1.4257813-0.3515625-2.1210938-0.0986328  l-1.878479,0.6772461l-0.3256226-0.9018555c-0.921875-2.5576172-3.3681641-4.2763672-6.0869141-4.2763672  c-3.5683594,0-6.4707031,2.9023438-6.4707031,6.4707031v12.9189453h-1.1367188  c-1.5742188,0-3.0527344,0.6113281-4.1689453,1.7265625C9.609375,43.7548828,9,45.2314453,9,46.7910156  c0,1.4678955,0.5494995,2.8637695,1.5048218,3.9284668c-0.0010376,0.0185547-0.0106812,0.0341797-0.0106812,0.0529785  c0,0.2960205,0.1338501,0.5546875,0.3378906,0.737793v3.9887695c0,7.0043945,4.722168,12.9936523,11.3909912,14.6933594  l-1.4886475,3.4873047c-0.3671875,0.8496094-0.3798828,1.7880859-0.0371094,2.6416016  c0.3417969,0.8515625,0.9990234,1.5185547,1.8466797,1.8759766c0.4492188,0.1904297,0.9013672,0.2871094,1.3427734,0.2871094  c1.3867188,0,2.6308594-0.8251953,3.1679688-2.0986328l2.2841797-5.3632813  c0.0484009-0.1142578,0.072998-0.2285156,0.1092529-0.3427734h41.104126c0.036438,0.114624,0.0611572,0.229126,0.1098633,0.34375  l2.2822266,5.359375c0.5380859,1.2763672,1.7822266,2.1015625,3.1689453,2.1015625  c0.4414063,0,0.8916016-0.0966797,1.3408203-0.2861328c0.8496094-0.3583984,1.5068359-1.0253906,1.8486328-1.8769531  c0.3427734-0.8535156,0.3300781-1.7919922-0.0351563-2.6376953l-1.4904175-3.4909668  c6.6699219-1.701416,11.3908081-7.6901855,11.3908081-14.6936035v-4.4375  c0.0371094-0.0351563,0.0742188-0.0712891,0.1103516-0.1074219c0.0019531-0.0019531,0.0039063-0.0029297,0.0048828-0.0048828  C90.390625,49.8261719,91,48.3496094,91,46.7910156C91,43.5458984,88.359375,40.9052734,85.1142578,40.9052734z   M31.4628906,27.8974609c0.0859375-0.03125,0.1738281-0.0458984,0.2626953-0.0458984  c0.1123047,0,0.2236328,0.0244141,0.328125,0.0732422c0.1875,0.0888672,0.3300781,0.2441406,0.4003906,0.4394531l0.7158203,1.984375  l-7.0947266,2.5585938L25.359375,30.921875c-0.0703125-0.1943359-0.0605469-0.4052734,0.0273438-0.5917969  c0.0878906-0.1875,0.2431641-0.3291016,0.4384766-0.3994141l2.8184814-1.0164795  c0.0003052-0.0001221,0.0005493,0,0.0008545-0.0001221c0.0002441-0.0001221,0.0004883-0.0002441,0.0007324-0.0004883  L31.4628906,27.8974609z M79.3310547,42.9052734v14.2851563H68.5595703V42.9052734H79.3310547z M12.1357422,44.0410156  c0.7333984-0.7324219,1.7099609-1.1357422,2.75-1.1357422h51.6738281v6.8671875H12.3999634  C11.5211792,49.045166,11,47.9545898,11,46.7910156C11,45.7607422,11.4052734,44.7822266,12.1357422,44.0410156z   M25.2138672,75.6054688c-0.2255859,0.5341797-0.7470703,0.8789063-1.3271484,0.8789063  c-0.1738281,0-0.3574219-0.0419922-0.5634766-0.1298828c-0.3544922-0.1494141-0.6279297-0.4257813-0.7705078-0.7792969  c-0.1425781-0.3544922-0.1357422-0.7460938,0.0195313-1.1064453l1.6630859-3.8964844  c0.0656128,0.0078125,0.1304932,0.0048828,0.196106,0.0117188c0.5327759,0.0568848,1.0653687,0.0957031,1.5929565,0.0957031  h1.2861328L25.2138672,75.6054688z M77.4472656,75.5751953c-0.1425781,0.3535156-0.4160156,0.6298828-0.7705078,0.7792969  c-0.0009766,0.0009766-0.0009766,0.0009766-0.0019531,0.0009766c-0.2041016,0.0869141-0.3876953,0.1289063-0.5615234,0.1289063  c-0.5800781,0-1.1015625-0.3447266-1.328125-0.8818359l-2.0957031-4.9228516h1.2861328  c0.5288696,0,1.062439-0.0388184,1.5958252-0.0958252c0.0646362-0.006958,0.1286011-0.0039063,0.1932373-0.0115967  l1.6650391,3.9003906C77.5830078,74.8291016,77.5898438,75.2207031,77.4472656,75.5751953z M87.8613281,49.5429688  c-0.1572266,0.15625-0.3242188,0.2919922-0.5,0.4199219c-0.3505859,0.2539063-0.4980469,0.7060547-0.3642578,1.1181641  c0.0380859,0.1171875,0.0966797,0.2246094,0.1708984,0.3173828v4.1005859c0,6.4482422-4.6064453,11.9101563-10.9560547,12.9873047  c-0.7451172,0.1279297-1.4970703,0.1933594-2.2363281,0.1933594h-2.6015625H28.6259766h-2.6015625  c-0.7392578,0-1.4912109-0.0654297-2.2392578-0.1943359c-6.3466797-1.0761719-10.953125-6.5380859-10.953125-12.9863281v-3.7265625  h53.7275391v6.4179688c0,0.5527344,0.4472656,1,1,1h12.7714844c0.5527344,0,1-0.4472656,1-1V42.9052734h3.7832031  C87.2568359,42.9052734,89,44.6484375,89,46.7910156C89,47.8193359,88.5957031,48.796875,87.8613281,49.5429688z"/><text x="0" y="115" fill="#000000" font-size="5px" font-weight="bold" font-family="'Helvetica Neue', Helvetica, Arial-Unicode, Arial, Sans-serif">Created by Edwin PM</text><text x="0" y="120" fill="#000000" font-size="5px" font-weight="bold" font-family="'Helvetica Neue', Helvetica, Arial-Unicode, Arial, Sans-serif">from the Noun Project</text></svg>