<svg xmlns="http://www.w3.org/2000/svg" xmlns:xlink="http://www.w3.org/1999/xlink" version="1.1" x="0px" y="0px" viewBox="0 0 100 125" style="enable-background:new 0 0 100 100;" xml:space="preserve"><g><path d="M96.24,40.195c-2.072,0-3.76,1.687-3.76,3.76v3.557h-0.871l-3.313-3.934V18.27c0-2.073-1.687-3.76-3.759-3.76   c-2.074,0-3.76,1.687-3.76,3.76v4.929c-10.118-2.489-20.459-3.768-30.784-3.802c-10.313,0.034-20.653,1.313-30.771,3.802V18.27   c0-2.073-1.686-3.76-3.759-3.76c-2.073,0-3.759,1.687-3.759,3.76v25.309L8.39,47.512H7.519v-3.557c0-2.073-1.687-3.76-3.76-3.76   C1.687,40.195,0,41.882,0,43.955V81.73c0,2.072,1.687,3.759,3.759,3.759c2.073,0,3.76-1.687,3.76-3.759v-3.636H92.48v3.636   c0,2.072,1.688,3.759,3.76,3.759c2.073,0,3.76-1.687,3.76-3.759V43.955C100,41.882,98.313,40.195,96.24,40.195z M17.343,29.516   C29.562,26.167,40.717,25.068,50,25.036c9.283,0.032,20.438,1.131,32.656,4.479v11.971h-4.231v-7.362c0,0-11.87-5.35-26.022,0.049   v7.313h-4.805v-7.313c-14.152-5.398-26.022-0.049-26.022-0.049v7.362h-4.232V29.516z M74.666,36.83v6.121H56.162v-6.123   C61.649,35.243,68.393,34.959,74.666,36.83z M43.838,36.828v6.123H25.334V36.83C31.608,34.959,38.351,35.243,43.838,36.828z    M17.343,45.246h4.232v1.464h26.022v-1.464h4.805v1.464h26.022v-1.464h4.231l3.739,4.146H13.604L17.343,45.246z M94.283,72.455   H5.717V53.151h0.38l-0.02,0.023h87.844l-0.02-0.023h0.381V72.455z"/></g><text x="0" y="115" fill="#000000" font-size="5px" font-weight="bold" font-family="'Helvetica Neue', Helvetica, Arial-Unicode, Arial, Sans-serif">Created by b farias</text><text x="0" y="120" fill="#000000" font-size="5px" font-weight="bold" font-family="'Helvetica Neue', Helvetica, Arial-Unicode, Arial, Sans-serif">from the Noun Project</text></svg>