<svg xmlns="http://www.w3.org/2000/svg" xmlns:xlink="http://www.w3.org/1999/xlink" xmlns:sketch="http://www.bohemiancoding.com/sketch/ns" viewBox="0 0 73 112.5" version="1.1" x="0px" y="0px"><title>clean</title><desc>Created with Sketch.</desc><g stroke="none" stroke-width="1" fill="none" fill-rule="evenodd" sketch:type="MSPage"><g sketch:type="MSArtboardGroup" transform="translate(-347.000000, -354.000000)" fill="#000000"><g sketch:type="MSLayerGroup" transform="translate(347.000000, 354.000000)"><path d="M47.4768367,77.2705102 L68.7159184,75.9746939 L69.0667347,41.2769388 L47.3344898,43.0934694 L47.4768367,77.2705102 L47.4768367,77.2705102 Z M67.2107143,43.2753061 L66.897551,74.2454082 L49.3043878,75.3189796 L49.1785714,44.7823469 L67.2107143,43.2753061 L67.2107143,43.2753061 Z" sketch:type="MSShapeGroup"/><path d="M72.3554082,32.7508163 C72.3544898,32.4982653 72.2497959,32.2567347 72.0652041,32.0840816 C72.0082653,32.0308163 71.937551,32.0014286 71.8705102,31.9646939 L71.8796939,31.9490816 L67.8416327,29.7321429 C67.6873469,29.6485714 67.5119388,29.6072449 67.3402041,29.6210204 L45.5730612,31.022449 L43.8777551,24.857449 C43.7840816,24.514898 43.5967347,24.2044898 43.3487755,23.950102 C43.9567347,23.5304082 44.1964286,23.13 44.2836735,22.9178571 C44.3663265,22.7139796 44.3736735,22.4880612 44.3047959,22.2795918 C44.2946939,22.247449 43.7859184,20.6742857 43.6132653,18.6942857 L47.7844898,17.920102 C49.7984694,21.375 54.8494898,24.4855102 56.8653061,24.4855102 C56.9543878,24.4855102 57.0370408,24.4790816 57.1123469,24.4671429 C57.6422449,24.3826531 58.0288776,24.0254082 58.1207143,23.535 C58.3016327,22.5762245 57.4218367,21.520102 55.9634694,19.7706122 C54.8595918,18.4463265 53.6087755,16.9457143 52.8134694,15.4432653 C51.7288776,13.399898 51.1310204,11.6044898 50.8490816,10.6218367 C52.7657143,10.7210204 54.325102,11.2086735 54.3554082,11.2187755 C54.5354082,11.277551 54.7264286,11.2711224 54.9045918,11.2169388 L58.3181633,10.9809184 L58.4054082,4.30438776 L55.2526531,3.91408163 C55.1433673,3.90030612 55.0377551,3.91408163 54.9367347,3.93704082 C54.9064286,3.92418367 54.8807143,3.90306122 54.8494898,3.89295918 C54.3994898,3.74785714 43.7767347,0.345306122 38.1434694,0.984489796 C31.8939796,1.69897959 28.6806122,5.08959184 28.5906122,11.0626531 C28.5042857,16.7895918 29.1866327,22.7341837 29.1939796,22.7938776 C29.2031633,22.8710204 29.2215306,22.9472449 29.25,23.0197959 C29.3041837,23.1603061 29.4713265,23.4872449 29.890102,23.8545918 C29.5907143,24.1255102 29.3592857,24.4689796 29.2527551,24.8583673 L26.0485714,36.5069388 C25.4672449,36.2176531 24.8409184,35.955 24.1723469,35.719898 C24.3982653,35.4590816 24.5406122,35.1606122 24.5406122,34.8061224 L24.5406122,29.6283673 C24.5883673,29.4878571 24.6168367,29.34 24.6168367,29.1811224 C24.6168367,28.429898 24.057551,27.8338776 22.9545918,27.4086735 C22.95,27.4077551 22.9463265,27.4077551 22.9417347,27.4068367 C22.9371429,27.405 22.9343878,27.4013265 22.9307143,27.3994898 L22.8241837,27.3618367 C21.9820408,26.6418367 21.1940816,25.695 21.1702041,25.3634694 C21.1738776,24.7022449 21.1591837,23.3283673 21.1472449,22.3640816 C21.6881633,22.0738776 22.0628571,21.6615306 22.0628571,21.0710204 C22.0628571,19.2489796 18.5253061,19.107551 17.4407143,19.107551 C16.3570408,19.107551 12.8185714,19.2489796 12.8185714,21.0710204 C12.8185714,21.6817347 13.219898,22.0995918 13.7892857,22.3907143 C13.8030612,23.3632653 13.8205102,24.7784694 13.8223469,25.2734694 C13.7185714,25.6178571 12.769898,26.6326531 11.7652041,27.4803061 C10.7770408,27.9 10.270102,28.4703061 10.270102,29.1811224 C10.270102,29.34 10.2976531,29.4878571 10.3463265,29.6283673 L10.3463265,34.8061224 C10.3463265,35.0513265 10.4188776,35.2671429 10.5318367,35.4664286 C1.19479592,38.3473469 0.774183673,47.3556122 0.771428571,47.4520408 L0.767755102,47.5539796 L0.786122449,47.6540816 C0.801734694,47.7339796 2.29408163,55.7347959 2.29408163,64.827551 C2.29408163,71.8493878 1.41428571,79.5609184 0.991836735,83.267449 C0.833877551,84.6477551 0.770510204,85.2180612 0.770510204,85.4706122 C0.770510204,89.567449 16.3836735,89.6142857 17.0476531,89.6142857 C17.712551,89.6142857 33.3247959,89.567449 33.3247959,85.4706122 C33.3247959,85.4246939 33.2972449,85.1537755 33.237551,84.6918367 C33.1705102,84.1628571 33.1117347,83.6485714 33.0502041,83.1278571 L40.635,83.1278571 L40.6478571,85.9821429 C40.6496939,86.3191837 40.8361224,86.6295918 41.1336735,86.787551 L44.3176531,88.4865306 L44.4030612,88.324898 C44.5518367,88.4222449 44.7180612,88.4892857 44.8980612,88.4892857 C44.9173469,88.4892857 44.937551,88.4883673 44.9559184,88.487449 L71.6684694,86.7765306 C72.1533673,86.7453061 72.5308163,86.3421429 72.5289796,85.8563265 L72.3554082,32.7508163 L72.3554082,32.7508163 Z M68.2190816,32.0354082 L45.477551,33.4561224 L44.5233673,32.9308163 L67.1914286,31.4715306 L68.2190816,32.0354082 L68.2190816,32.0354082 Z M42.2485714,33.7747959 L44.3461224,34.930102 L44.3452041,35.110102 C44.3103061,35.1394898 44.2689796,35.1560204 44.2386735,35.1918367 C43.9273469,35.5509184 43.5030612,35.9265306 43.2358163,36.0918367 C43.0117347,35.7777551 42.6728571,35.1257143 42.4322449,34.525102 C42.39,34.4176531 42.3247959,34.3276531 42.2513265,34.2477551 L42.2485714,33.7747959 L42.2485714,33.7747959 Z M44.9008163,12.7368367 C45.1441837,13.1703061 45.4702041,13.7553061 45.8742857,14.4826531 L43.8694898,14.8812245 C44.0761224,14.1052041 44.4076531,13.3732653 44.9008163,12.7368367 L44.9008163,12.7368367 Z M43.5746939,16.812551 L46.8091837,16.1696939 C46.8202041,16.189898 46.8293878,16.2064286 46.8413265,16.2266327 L43.5737755,16.8336735 C43.5737755,16.8263265 43.5746939,16.819898 43.5746939,16.812551 L43.5746939,16.812551 Z M54.5528571,20.9470408 C54.8954082,21.357551 55.2985714,21.8415306 55.6328571,22.2731633 C53.8337755,21.4631633 50.697551,19.4253061 49.2841837,16.8557143 C47.7844898,14.1272449 46.8009184,12.3676531 46.3086735,11.4933673 C47.1159184,11.0268367 48.0352041,10.7871429 48.9590816,10.6796939 C49.1978571,11.6044898 49.842551,13.7635714 51.1897959,16.3037755 C52.0760204,17.9742857 53.4489796,19.6227551 54.5528571,20.9470408 L54.5528571,20.9470408 Z M56.502551,9.26540816 L55.5428571,9.33153061 L55.4978571,5.79489796 L56.5466327,5.92438776 L56.502551,9.26540816 L56.502551,9.26540816 Z M30.4273469,11.0911224 C30.5026531,6.05020408 33.0208163,3.41908163 38.3519388,2.80928571 C42.8556122,2.29683673 51.2954082,4.72683673 53.657449,5.44591837 L53.7042857,9.15520408 C51.4395918,8.66204082 46.5722449,8.07520408 43.7510204,11.2242857 C40.6147959,14.7232653 41.9188776,20.5852041 42.4102041,22.3503061 C42.1089796,22.5863265 41.4211224,22.9793878 39.9967347,23.2576531 L32.9106122,23.2576531 C31.6496939,22.9610204 31.1510204,22.5404082 30.994898,22.3686735 C30.8764286,21.2693878 30.3520408,16.092551 30.4273469,11.0911224 L30.4273469,11.0911224 Z M12.1830612,31.0408163 C14.0409184,31.6845918 16.6885714,31.7341837 17.4434694,31.7341837 C18.1983673,31.7341837 20.8460204,31.6845918 22.7038776,31.0417347 L22.7038776,34.6031633 C22.2254082,34.92 20.3620408,35.4370408 17.4434694,35.4370408 C14.524898,35.4370408 12.6606122,34.92 12.1830612,34.6022449 L12.1830612,31.0408163 L12.1830612,31.0408163 Z M17.4407143,20.9442857 C18.1056122,20.9442857 18.675,20.9966327 19.1323469,21.0710204 C18.675,21.1444898 18.1056122,21.1968367 17.4407143,21.1968367 C16.7767347,21.1968367 16.2073469,21.1444898 15.75,21.0710204 C16.2073469,20.9966327 16.7767347,20.9442857 17.4407143,20.9442857 L17.4407143,20.9442857 Z M15.649898,25.3653061 C15.6535714,24.9079592 15.642551,23.8297959 15.632449,22.9105102 C16.3653061,23.0142857 17.0568367,23.0335714 17.4407143,23.0335714 C17.8365306,23.0335714 18.5592857,23.0133673 19.3169388,22.9013265 C19.3270408,23.7811224 19.3362245,24.8096939 19.3334694,25.352449 C19.3252041,26.7529592 21.2023469,28.4087755 21.7781633,28.8817347 L21.9039796,28.9845918 L22.3016327,29.1260204 C22.3539796,29.1462245 22.4008163,29.1655102 22.4439796,29.1838776 C21.679898,29.5071429 19.9506122,29.897449 17.4434694,29.897449 C14.9363265,29.897449 13.2061224,29.5071429 12.4420408,29.1838776 C12.4861224,29.1645918 12.5338776,29.1443878 12.5880612,29.1241837 C12.6119388,29.115 12.6266327,29.0957143 12.6495918,29.0846939 C12.7166327,29.052551 12.7845918,29.0231633 12.8442857,28.9735714 C14.119898,27.9156122 15.6416327,26.4306122 15.649898,25.3653061 L15.649898,25.3653061 Z M17.0476531,87.777551 C8.19091837,87.777551 3.00765306,86.2539796 2.6072449,85.4706122 C2.60908163,85.2997959 2.70918367,84.4135714 2.81663265,83.475 C3.2427551,79.7354082 4.13081633,71.9531633 4.13081633,64.827551 C4.13081633,56.1526531 2.79367347,48.4346939 2.61183673,47.4244898 C2.67704082,46.4262245 3.49622449,38.5778571 12.8286735,36.792551 C14.49,37.2177551 16.5306122,37.2737755 17.4434694,37.2737755 C18.2727551,37.2737755 20.035102,37.2296939 21.5972449,36.9027551 C30.4558163,38.8285714 31.887551,46.0304082 32.0546939,47.1388776 C31.8076531,48.3658163 30.222551,56.5135714 30.0958163,64.9184694 C30.0085714,70.615102 30.4530612,77.3458163 31.4164286,84.9232653 C31.4458163,85.1592857 31.4687755,85.3319388 31.4807143,85.4357143 C30.9434694,86.2953061 25.7822449,87.777551 17.0476531,87.777551 L17.0476531,87.777551 Z M32.8380612,81.2911224 C32.1676531,75.1812245 31.8590816,69.6903061 31.9316327,64.9460204 C32.067551,56.0553061 33.8666327,47.4465306 33.8840816,47.3602041 L33.9153061,47.2160204 L33.8987755,47.07 C33.8905102,46.9937755 33.1677551,41.1162245 27.6915306,37.4556122 L31.022449,25.3460204 C31.0545918,25.2284694 31.2410204,25.0943878 31.3714286,25.0943878 L32.6984694,25.0943878 C33.6076531,25.2890816 34.7491837,25.414898 36.1855102,25.414898 C36.3857143,25.414898 36.5914286,25.4130612 36.8026531,25.407551 C38.1508163,25.3754082 39.2455102,25.2587755 40.1556122,25.0943878 L41.7590816,25.0943878 C41.8894898,25.0943878 42.075,25.2284694 42.1080612,25.345102 L43.7014286,31.1427551 L41.265,31.2997959 C40.780102,31.3310204 40.4035714,31.735102 40.4054082,32.22 L40.6267347,81.2911224 L32.8380612,81.2911224 L32.8380612,81.2911224 Z M42.2669388,37.71 C42.3652041,37.7871429 42.4653061,37.8514286 42.5690816,37.8964286 C42.7435714,37.9717347 42.9226531,38.0057143 43.1035714,38.0057143 C43.5186735,38.0057143 43.937449,37.8229592 44.3277551,37.5676531 L43.9888776,86.2291837 L42.4818367,85.4256122 L42.2669388,37.71 L42.2669388,37.71 Z M45.8228571,86.5919388 L46.180102,35.252449 L70.5223469,33.7316327 L70.6894898,84.9985714 L45.8228571,86.5919388 L45.8228571,86.5919388 Z" sketch:type="MSShapeGroup"/><path d="M17.0586735,45.7411224 C6.78122449,45.7411224 6.37714286,54.2341837 6.37346939,54.3508163 L6.37346939,78.7454082 C6.37346939,81.5188776 14.6268367,81.7346939 17.1560204,81.7346939 C19.6852041,81.7346939 27.9376531,81.5188776 27.9376531,78.7454082 C27.9376531,77.2943878 28.305,54.3958163 28.3086735,54.1643878 L28.3095918,54.1065306 L28.3031633,54.0495918 C28.294898,53.9660204 27.2718367,45.7411224 17.0586735,45.7411224 L17.0586735,45.7411224 Z M26.1018367,78.5782653 C25.5058163,79.0585714 22.4063265,79.8979592 17.1560204,79.8979592 C11.907551,79.8979592 8.80806122,79.0594898 8.21020408,78.5782653 L8.20928571,54.3847959 C8.22122449,54.107449 8.59040816,47.5778571 17.0586735,47.5778571 C25.2973469,47.5778571 26.3782653,53.55 26.4710204,54.2011224 C26.4462245,55.7834694 26.1192857,76.1170408 26.1018367,78.5782653 L26.1018367,78.5782653 Z" sketch:type="MSShapeGroup"/></g></g></g><text x="0" y="105" fill="#000000" font-size="5px" font-weight="bold" font-family="'Helvetica Neue', Helvetica, Arial-Unicode, Arial, Sans-serif">Created by Alexander Gruzdev</text><text x="0" y="110" fill="#000000" font-size="5px" font-weight="bold" font-family="'Helvetica Neue', Helvetica, Arial-Unicode, Arial, Sans-serif">from the Noun Project</text></svg>