<svg xmlns="http://www.w3.org/2000/svg" xmlns:xlink="http://www.w3.org/1999/xlink" version="1.1" x="0px" y="0px" viewBox="0 0 64 80" style="enable-background:new 0 0 64 64;" xml:space="preserve"><path d="M55,2h-6c-0.552,0-1,0.448-1,1v11c-0.297,0-0.578,0.132-0.768,0.36l-5,6c-0.249,0.298-0.302,0.713-0.138,1.064  C42.259,21.775,42.612,22,43,22h18c0.388,0,0.741-0.225,0.906-0.576c0.165-0.352,0.111-0.767-0.138-1.064l-5-6  C56.578,14.132,56.297,14,56,14V3C56,2.448,55.552,2,55,2z M58.865,20H45.135l3.333-4H49h6h0.532L58.865,20z M50,14V4h4v10H50z"/><path d="M61,38H41H26V19c0-0.552-0.448-1-1-1H3c-0.552,0-1,0.448-1,1v42c0,0.552,0.448,1,1,1h22h16h20c0.552,0,1-0.448,1-1V39  C62,38.448,61.552,38,61,38z M40,40v9H26v-9H40z M24,20v14H4V20H24z M4,36h20v3v21H4V36z M26,51h14v9H26V51z M60,60H42V40h18V60z"/><path d="M45,58h12c0.552,0,1-0.448,1-1v-8c0-0.552-0.448-1-1-1H45c-0.552,0-1,0.448-1,1v8C44,57.552,44.448,58,45,58z M46,50h10v6  H46V50z"/><rect x="31" y="42" width="4" height="2"/><rect x="31" y="53" width="4" height="2"/><rect x="20" y="25" width="2" height="4"/><rect x="20" y="43" width="2" height="5"/><rect x="44" y="43" width="2" height="2"/><rect x="50" y="43" width="2" height="2"/><rect x="56" y="43" width="2" height="2"/><path d="M3,16h38c0.552,0,1-0.448,1-1V3c0-0.552-0.448-1-1-1H3C2.448,2,2,2.448,2,3v12C2,15.552,2.448,16,3,16z M40,14H23V4h17V14z   M4,4h17v10H4V4z"/><rect x="17" y="8" width="2" height="2"/><rect x="25" y="8" width="2" height="2"/><path d="M42,25v-2H28v2h2v5h-1c-0.552,0-1,0.448-1,1v4c0,0.552,0.448,1,1,1h4c0.552,0,1-0.448,1-1v-4c0-0.552-0.448-1-1-1h-1v-5h6v5  h-1c-0.552,0-1,0.448-1,1c0,2.851,1.29,5,3,5s3-2.149,3-5c0-0.552-0.448-1-1-1h-1v-5H42z M32,34h-2v-2h2V34z M39,34  c-0.202,0-0.735-0.701-0.928-2h1.856C39.735,33.299,39.202,34,39,34z"/><text x="0" y="79" fill="#000000" font-size="5px" font-weight="bold" font-family="'Helvetica Neue', Helvetica, Arial-Unicode, Arial, Sans-serif">Created by Becris</text><text x="0" y="84" fill="#000000" font-size="5px" font-weight="bold" font-family="'Helvetica Neue', Helvetica, Arial-Unicode, Arial, Sans-serif">from the Noun Project</text></svg>