<svg xmlns="http://www.w3.org/2000/svg" xmlns:xlink="http://www.w3.org/1999/xlink" version="1.1" x="0px" y="0px" viewBox="0 0 100 125" style="enable-background:new 0 0 100 100;" xml:space="preserve"><g><path d="M87.2,31.9L70.4,15.3c-0.4-0.4-0.9-0.6-1.4-0.6H58.2c-0.5,0-1,0.2-1.4,0.6l-5.4,5.4c-0.4,0.4-0.6,0.9-0.6,1.4   s0.2,1,0.6,1.4l5.9,5.8l-42.9,43c-0.8,0.8-0.8,2,0,2.8l7.5,7.5c0.4,0.4,0.9,0.6,1.4,0.6c0,0,0,0,0,0c0.5,0,1-0.2,1.4-0.6l42.9-43.1   l6,5.9c0.8,0.8,2,0.8,2.8,0l10.8-10.8c0.4-0.4,0.6-0.9,0.6-1.4C87.8,32.7,87.6,32.2,87.2,31.9z M75,41.2l-6-5.9   c-0.8-0.8-2-0.8-2.8,0L23.3,78.4l-4.6-4.6l42.9-43c0.4-0.4,0.6-0.9,0.6-1.4s-0.2-1-0.6-1.4l-5.9-5.8l3.4-3.4h9.1l14.8,14.6L75,41.2   z"/><path d="M14.5,40l5.4,5.4c0.4,0.4,1,0.6,1.6,0.6l9.9-1l2.7,2.7c0.4,0.4,0.9,0.6,1.4,0.6c0.5,0,1-0.2,1.4-0.6l7.5-7.5   c0.4-0.4,0.6-0.9,0.6-1.4s-0.2-1-0.6-1.4L41.9,35l0.9-10.2c0-0.6-0.2-1.2-0.6-1.6l-5.4-5.4c-0.3-0.3-0.7-0.5-1.2-0.6L26.4,16   c-0.6-0.1-1.2,0.1-1.7,0.6L22,19.3c-0.8,0.8-0.8,2,0,2.8l6.4,6.4l-3.1,3.1l-6.4-6.4c-0.4-0.4-0.9-0.6-1.4-0.6c0,0,0,0,0,0   c-0.5,0-1,0.2-1.4,0.6l-2.8,2.8c-0.4,0.4-0.7,1.1-0.6,1.7l1.3,9.1C14,39.3,14.2,39.7,14.5,40z M17.4,29.5l6.4,6.4   c0.8,0.8,2,0.8,2.8,0l6-6c0.4-0.4,0.6-0.9,0.6-1.4c0-0.5-0.2-1-0.6-1.4l-6.4-6.4l0.6-0.6l7.6,1l4.3,4.3l-0.9,10.2   c0,0.6,0.2,1.2,0.6,1.6l1.7,1.7l-4.6,4.6l-1.9-1.9c-0.4-0.4-0.9-0.6-1.4-0.6c-0.1,0-0.1,0-0.2,0l-9.9,1l-4.3-4.3l-1.1-7.5   L17.4,29.5z"/><path d="M80.8,62.4c-0.1-0.4-0.3-0.8-0.6-1.1l-5.4-5.4c-0.4-0.4-1-0.6-1.6-0.6l-9.9,0.9l-3.7-3.6c-0.8-0.8-2-0.8-2.8,0L49.4,60   c-0.4,0.4-0.6,0.9-0.6,1.4s0.2,1,0.6,1.4l3.5,3.4L52,76.5c0,0.6,0.2,1.2,0.6,1.6l5.4,5.4c0.3,0.3,0.7,0.5,1.2,0.6l9.3,1.2   c0.1,0,0.2,0,0.3,0c0.5,0,1.1-0.2,1.4-0.6l2.8-2.8c0.8-0.8,0.8-2,0-2.8l-6.4-6.4l3.1-3.1L76,76c0.4,0.4,0.9,0.6,1.4,0.6   c0,0,0,0,0,0c0.5,0,1-0.2,1.4-0.6l2.8-2.8c0.4-0.4,0.7-1.1,0.6-1.7L80.8,62.4z M77.4,71.7l-6.4-6.4c-0.8-0.8-2-0.8-2.8,0l-6,5.9   c-0.4,0.4-0.6,0.9-0.6,1.4c0,0.5,0.2,1,0.6,1.4l6.5,6.5l-0.7,0.7l-7.6-1l-4.3-4.3l0.9-10.3c0-0.6-0.2-1.2-0.6-1.6l-2.7-2.6l4.6-4.6   l3,2.9c0.4,0.4,1,0.6,1.6,0.6l9.9-0.9l4.3,4.3l1.1,7.5L77.4,71.7z"/></g><text x="0" y="115" fill="#000000" font-size="5px" font-weight="bold" font-family="'Helvetica Neue', Helvetica, Arial-Unicode, Arial, Sans-serif">Created by Ami</text><text x="0" y="120" fill="#000000" font-size="5px" font-weight="bold" font-family="'Helvetica Neue', Helvetica, Arial-Unicode, Arial, Sans-serif">from the Noun Project</text></svg>